<mxfile host="app.diagrams.net" agent="Mozilla/5.0 (Windows NT 10.0; Win64; x64; rv:133.0) Gecko/20100101 Firefox/133.0" version="25.0.1">
  <diagram name="Страница — 1" id="NOiwwG4BQNX325EIyOeQ">
    <mxGraphModel dx="2261" dy="793" grid="0" gridSize="10" guides="1" tooltips="1" connect="1" arrows="1" fold="1" page="1" pageScale="1" pageWidth="827" pageHeight="1169" math="0" shadow="0">
      <root>
        <mxCell id="0" />
        <mxCell id="1" parent="0" />
        <mxCell id="4XwufChyHULgnvLvFmoj-16" value="" style="edgeStyle=orthogonalEdgeStyle;rounded=0;orthogonalLoop=1;jettySize=auto;html=1;" parent="1" edge="1">
          <mxGeometry relative="1" as="geometry">
            <mxPoint x="610" y="230" as="targetPoint" />
          </mxGeometry>
        </mxCell>
        <mxCell id="4XwufChyHULgnvLvFmoj-18" value="" style="edgeStyle=orthogonalEdgeStyle;rounded=0;orthogonalLoop=1;jettySize=auto;html=1;" parent="1" edge="1">
          <mxGeometry relative="1" as="geometry">
            <mxPoint x="790" y="270" as="targetPoint" />
          </mxGeometry>
        </mxCell>
        <mxCell id="4XwufChyHULgnvLvFmoj-19" value="" style="edgeStyle=orthogonalEdgeStyle;rounded=0;orthogonalLoop=1;jettySize=auto;html=1;" parent="1" edge="1">
          <mxGeometry relative="1" as="geometry">
            <mxPoint x="790" y="350" as="targetPoint" />
          </mxGeometry>
        </mxCell>
        <mxCell id="1ckEkhAvHQNGdBm3G2Qh-1" style="rounded=0;orthogonalLoop=1;jettySize=auto;html=1;exitX=1;exitY=0.3333333333333333;exitDx=0;exitDy=0;exitPerimeter=0;entryX=0;entryY=0.5;entryDx=0;entryDy=0;" edge="1" parent="1" source="1ckEkhAvHQNGdBm3G2Qh-4" target="1ckEkhAvHQNGdBm3G2Qh-9">
          <mxGeometry relative="1" as="geometry" />
        </mxCell>
        <mxCell id="1ckEkhAvHQNGdBm3G2Qh-2" style="rounded=0;orthogonalLoop=1;jettySize=auto;html=1;exitX=0;exitY=0.3333333333333333;exitDx=0;exitDy=0;exitPerimeter=0;entryX=1;entryY=1;entryDx=0;entryDy=0;" edge="1" parent="1" source="1ckEkhAvHQNGdBm3G2Qh-4" target="1ckEkhAvHQNGdBm3G2Qh-7">
          <mxGeometry relative="1" as="geometry" />
        </mxCell>
        <mxCell id="1ckEkhAvHQNGdBm3G2Qh-3" style="rounded=0;orthogonalLoop=1;jettySize=auto;html=1;exitX=1;exitY=0.3333333333333333;exitDx=0;exitDy=0;exitPerimeter=0;entryX=0;entryY=1;entryDx=0;entryDy=0;" edge="1" parent="1" source="1ckEkhAvHQNGdBm3G2Qh-4" target="1ckEkhAvHQNGdBm3G2Qh-8">
          <mxGeometry relative="1" as="geometry" />
        </mxCell>
        <mxCell id="1ckEkhAvHQNGdBm3G2Qh-4" value="&lt;div&gt;Пользователь&lt;/div&gt;&lt;div&gt;(неавторизованный)&lt;br&gt;&lt;/div&gt;" style="shape=umlActor;verticalLabelPosition=bottom;verticalAlign=top;html=1;outlineConnect=0;fillColor=#f5f5f5;fontColor=#333333;strokeColor=#666666;" vertex="1" parent="1">
          <mxGeometry x="-127" y="560" width="30" height="60" as="geometry" />
        </mxCell>
        <mxCell id="1ckEkhAvHQNGdBm3G2Qh-7" value="&lt;div&gt;Просмотр картинок&lt;/div&gt;" style="ellipse;whiteSpace=wrap;html=1;" vertex="1" parent="1">
          <mxGeometry x="-301" y="461" width="120" height="80" as="geometry" />
        </mxCell>
        <mxCell id="1ckEkhAvHQNGdBm3G2Qh-8" value="Регистрация" style="ellipse;whiteSpace=wrap;html=1;" vertex="1" parent="1">
          <mxGeometry x="-59" y="461" width="120" height="80" as="geometry" />
        </mxCell>
        <mxCell id="1ckEkhAvHQNGdBm3G2Qh-9" value="Авторизация" style="ellipse;whiteSpace=wrap;html=1;" vertex="1" parent="1">
          <mxGeometry x="-29" y="577" width="120" height="80" as="geometry" />
        </mxCell>
      </root>
    </mxGraphModel>
  </diagram>
</mxfile>
